<mxfile host="app.diagrams.net" modified="2021-08-03T12:09:16.831Z" agent="5.0 (Windows)" etag="c-2NOKMN6usYFViah_9C" version="14.9.3" type="github">
  <diagram id="8RQdaqb4-Wvy7M-p6WN6" name="Page-1">
    <mxGraphModel dx="1038" dy="508" grid="1" gridSize="10" guides="1" tooltips="1" connect="1" arrows="1" fold="1" page="1" pageScale="1" pageWidth="1169" pageHeight="827" math="0" shadow="0">
      <root>
        <mxCell id="0" />
        <mxCell id="1" parent="0" />
        <mxCell id="pk6nwwlZHEK9yg3PulME-1" value="Staff Training and Development " style="swimlane;" vertex="1" parent="1">
          <mxGeometry x="20" y="20" width="860" height="790" as="geometry" />
        </mxCell>
        <mxCell id="pk6nwwlZHEK9yg3PulME-2" value="Start" style="rounded=1;whiteSpace=wrap;html=1;" vertex="1" parent="pk6nwwlZHEK9yg3PulME-1">
          <mxGeometry x="260" y="50" width="120" height="60" as="geometry" />
        </mxCell>
        <mxCell id="pk6nwwlZHEK9yg3PulME-5" value="&lt;span lang=&quot;EN-GB&quot;&gt;At the beginning of the financial year (FY) the HRM sends notificationto HODs to &lt;span&gt;prepare&lt;/span&gt; training needs.&lt;/span&gt;" style="rounded=0;whiteSpace=wrap;html=1;" vertex="1" parent="pk6nwwlZHEK9yg3PulME-1">
          <mxGeometry x="230" y="160" width="180" height="80" as="geometry" />
        </mxCell>
        <mxCell id="pk6nwwlZHEK9yg3PulME-4" value="" style="edgeStyle=orthogonalEdgeStyle;rounded=0;orthogonalLoop=1;jettySize=auto;html=1;" edge="1" parent="pk6nwwlZHEK9yg3PulME-1" source="pk6nwwlZHEK9yg3PulME-2" target="pk6nwwlZHEK9yg3PulME-5">
          <mxGeometry relative="1" as="geometry">
            <mxPoint x="320" y="190" as="targetPoint" />
          </mxGeometry>
        </mxCell>
      </root>
    </mxGraphModel>
  </diagram>
</mxfile>
